<svg width="60" height="61" viewBox="0 0 60 61" fill="none" xmlns="http://www.w3.org/2000/svg">
<path id="arrow_circle_left" d="M30 19.5384L27.7051 21.8333L34.7051 28.8333L18.3333 28.8333L18.3333 32.1667L34.7051 32.1667L27.7051 39.1667L30 41.4616L40.9616 30.5L30 19.5384ZM29.9888 0.500003C34.1373 0.500002 38.0376 1.2872 41.6897 2.86159C45.3417 4.43603 48.5185 6.57275 51.2201 9.27175C53.9216 11.9707 56.0603 15.1446 57.6362 18.7932C59.2121 22.4418 60 26.3404 60 30.4888C60 34.6373 59.2128 38.5376 57.6384 42.1897C56.064 45.8417 53.9272 49.0185 51.2282 51.7201C48.5292 54.4216 45.3554 56.5603 41.7068 58.1362C38.0582 59.7121 34.1596 60.5 30.0112 60.5C25.8627 60.5 21.9624 59.7128 18.3103 58.1384C14.6583 56.564 11.4815 54.4273 8.77992 51.7283C6.07842 49.0293 3.93972 45.8554 2.36383 42.2068C0.787947 38.5582 -2.25904e-06 34.6596 -2.62171e-06 30.5112C-2.98438e-06 26.3627 0.787194 22.4624 2.36158 18.8103C3.93603 15.1583 6.07275 11.9815 8.77174 9.27992C11.4707 6.57842 14.6446 4.43972 18.2932 2.86383C21.9418 1.28794 25.8404 0.500003 29.9888 0.500003ZM30 3.83334C22.5556 3.83334 16.25 6.41667 11.0833 11.5833C5.91666 16.75 3.33333 23.0556 3.33333 30.5C3.33333 37.9444 5.91667 44.25 11.0833 49.4167C16.25 54.5833 22.5556 57.1667 30 57.1667C37.4444 57.1667 43.75 54.5833 48.9167 49.4167C54.0833 44.25 56.6667 37.9444 56.6667 30.5C56.6667 23.0556 54.0833 16.75 48.9167 11.5833C43.75 6.41667 37.4444 3.83334 30 3.83334Z" fill="#1C50C0"/>
</svg>
