<svg width="26" height="26" viewBox="0 0 26 26" fill="none" xmlns="http://www.w3.org/2000/svg">
<path id="Vector" d="M7.22222 0C3.23989 0 0 3.23989 0 7.22222V18.7778C0 22.7601 3.23989 26 7.22222 26H18.7778C22.7601 26 26 22.7601 26 18.7778V7.22222C26 3.23989 22.7601 0 18.7778 0H7.22222ZM7.22222 2.88889H18.7778C21.1669 2.88889 23.1111 4.83311 23.1111 7.22222V18.7778C23.1111 21.1669 21.1669 23.1111 18.7778 23.1111H7.22222C4.83311 23.1111 2.88889 21.1669 2.88889 18.7778V7.22222C2.88889 4.83311 4.83311 2.88889 7.22222 2.88889ZM20.2222 4.33333C19.8391 4.33333 19.4717 4.48552 19.2008 4.7564C18.93 5.02729 18.7778 5.39469 18.7778 5.77778C18.7778 6.16087 18.93 6.52827 19.2008 6.79915C19.4717 7.07004 19.8391 7.22222 20.2222 7.22222C20.6053 7.22222 20.9727 7.07004 21.2436 6.79915C21.5145 6.52827 21.6667 6.16087 21.6667 5.77778C21.6667 5.39469 21.5145 5.02729 21.2436 4.7564C20.9727 4.48552 20.6053 4.33333 20.2222 4.33333ZM13 5.77778C9.01767 5.77778 5.77778 9.01767 5.77778 13C5.77778 16.9823 9.01767 20.2222 13 20.2222C16.9823 20.2222 20.2222 16.9823 20.2222 13C20.2222 9.01767 16.9823 5.77778 13 5.77778ZM13 8.66667C15.3891 8.66667 17.3333 10.6109 17.3333 13C17.3333 15.3891 15.3891 17.3333 13 17.3333C10.6109 17.3333 8.66667 15.3891 8.66667 13C8.66667 10.6109 10.6109 8.66667 13 8.66667Z" fill="white"/>
</svg>
